<svg xmlns="http://www.w3.org/2000/svg" viewBox="0 0 50 50" enable-background="new 0 0 50 50" width="50" height="50" style="fill: rgb(242, 7, 50);">
    <path style="text-indent:0;text-align:start;line-height:normal;text-transform:none;block-progression:tb;-inkscape-font-specification:Bitstream Vera Sans" d="M 10 0 C 4.4666667 0 0 4.4666667 0 10 L 0 40 C 0 45.533333 4.4666667 50 10 50 L 40 50 C 45.533333 50 50 45.533333 50 40 L 50 10 C 50 4.4666667 45.533333 0 40 0 L 10 0 z M 10 2 L 40 2 C 44.466667 2 48 5.5333333 48 10 L 48 40 C 48 44.466667 44.466667 48 40 48 L 10 48 C 5.5333333 48 2 44.466667 2 40 L 2 10 C 2 5.5333333 5.5333333 2 10 2 z M 8.8125 14.09375 A 1.0001 1.0001 0 0 0 8 15.09375 L 8 35.09375 A 1.0001 1.0001 0 0 0 9 36.09375 L 18.6875 36.09375 C 19.661574 36.09375 20.636138 36.00503 21.53125 35.78125 C 22.59969 35.543819 23.39375 35.05625 24.09375 34.65625 A 1.0001 1.0001 0 0 0 24.1875 34.625 C 25.012126 34.035982 25.606525 33.297956 26.0625 32.5 C 26.574449 31.604089 26.8125 30.539583 26.8125 29.40625 A 1.0001 1.0001 0 0 0 26.8125 29.34375 C 26.710379 27.811942 26.452619 26.534468 25.625 25.4375 C 25.61235 25.41852 25.60663 25.39376 25.59375 25.375 L 25.5625 25.375 C 25.127514 24.747492 24.560196 24.272447 23.90625 23.875 C 24.221154 23.594748 24.687551 23.415391 24.90625 23.09375 C 24.91445 23.08234 24.92948 23.07396 24.9375 23.0625 C 25.555754 22.179104 25.8125 21.118814 25.8125 20 C 25.8125 18.951852 25.567005 18.009009 25.1875 17.25 C 24.827872 16.530743 24.311842 15.874562 23.5625 15.375 C 22.933746 14.955831 22.16113 14.61185 21.25 14.46875 C 21.2458 14.468085 21.2542 14.43816 21.25 14.4375 C 21.23061 14.4327 21.20696 14.4422 21.1875 14.4375 C 21.16168 14.4339 21.1511 14.40951 21.125 14.40625 C 20.263314 14.202475 19.336849 14.09375 18.40625 14.09375 L 9 14.09375 A 1.0001 1.0001 0 0 0 8.90625 14.09375 A 1.0001 1.0001 0 0 0 8.8125 14.09375 z M 31.8125 16 A 1.001098 1.001098 0 0 0 32 18 L 40 18 A 1.0001 1.0001 0 1 0 40 16 L 32 16 A 1.0001 1.0001 0 0 0 31.90625 16 A 1.001098 1.001098 0 0 0 31.8125 16 z M 10 16.09375 L 18.40625 16.09375 C 19.232176 16.09375 20.045112 16.198778 20.75 16.375 A 1.0001 1.0001 0 0 0 20.875 16.40625 C 21.49181 16.48335 21.901504 16.673919 22.4375 17.03125 C 22.888158 17.331688 23.165878 17.675507 23.40625 18.15625 C 23.626745 18.597241 23.8125 19.248148 23.8125 20 C 23.8125 20.866667 23.645104 21.396854 23.28125 21.90625 A 1.0001 1.0001 0 0 0 23.28125 21.9375 C 23.009258 22.345488 22.424207 22.860075 21.6875 23.1875 A 1.0001 1.0001 0 0 0 21.78125 25.0625 C 22.838948 25.415066 23.510981 25.875846 23.96875 26.5625 A 1.0001 1.0001 0 0 0 24 26.625 C 24.525386 27.300496 24.715736 28.022755 24.8125 29.40625 C 24.8145 29.43494 24.8105 29.43947 24.8125 29.46875 C 24.8026 30.303329 24.623613 31.01024 24.34375 31.5 C 24.014947 32.075405 23.628538 32.539625 23.09375 32.9375 C 22.39375 33.3375 21.82531 33.649931 21.09375 33.8125 A 1.0001 1.0001 0 0 0 21.0625 33.84375 C 20.357612 34.019972 19.513426 34.09375 18.6875 34.09375 L 10 34.09375 L 10 16.09375 z M 13.8125 17 A 1.0001 1.0001 0 0 0 13 18 L 13 23 A 1.0001 1.0001 0 0 0 14 24 L 17.09375 24 C 18.530417 24 19.616741 23.560897 20.25 22.8125 C 20.883259 22.064103 21 21.171212 21 20.5 C 21 19.975 20.901395 19.094173 20.25 18.3125 C 19.598605 17.530827 18.457902 17 16.8125 17 L 14 17 A 1.0001 1.0001 0 0 0 13.90625 17 A 1.0001 1.0001 0 0 0 13.8125 17 z M 15 19 L 16.8125 19 C 18.067098 19 18.495145 19.325423 18.71875 19.59375 C 18.942355 19.862077 19 20.225 19 20.5 C 19 20.928788 18.91049 21.304647 18.71875 21.53125 C 18.527009 21.757853 18.157083 22 17.09375 22 L 15 22 L 15 19 z M 36.09375 19 C 35.045602 19 33.06078 19.211809 31.21875 20.40625 C 29.37672 21.600691 27.8125 23.876368 27.8125 27.5 C 27.8125 30.863441 29.212546 33.10823 30.96875 34.375 C 32.724954 35.64177 34.713194 36 36.09375 36 C 39.14678 36 41.191894 34.547045 42.34375 33.125 C 43.495606 31.702955 43.875 30.25 43.875 30.25 A 1.0001 1.0001 0 0 0 43.8125 29.5625 A 1.0001 1.0001 0 0 0 44 29 C 44 27.309596 43.919192 24.915188 42.875 22.8125 C 41.830808 20.709812 39.636058 19 36.09375 19 z M 36.09375 21 C 39.051442 21 40.312942 22.146438 41.09375 23.71875 C 41.727551 24.995033 41.88344 26.570168 41.9375 28 L 32.6875 28 A 1.0001 1.0001 0 0 0 31.71875 29.125 C 31.78311 29.704286 31.980221 30.626108 32.65625 31.5 C 33.332279 32.373892 34.525595 33.09375 36.1875 33.09375 C 37.756731 33.09375 38.903998 32.412029 39.53125 31.71875 C 39.8419 31.3754 39.804444 31.2739 39.9375 31 L 41.25 31 C 41.071097 31.361144 41.139511 31.432702 40.78125 31.875 C 39.908106 32.952955 38.54072 34 36.09375 34 C 35.074306 34 33.418796 33.68323 32.125 32.75 C 30.831204 31.81677 29.8125 30.336559 29.8125 27.5 C 29.8125 24.423632 30.95453 22.943059 32.3125 22.0625 C 33.67047 21.181941 35.341898 21 36.09375 21 z M 36 22 C 35.204762 22 34.516385 22.116807 33.9375 22.40625 C 33.358615 22.695693 32.9875 23.10625 32.6875 23.40625 A 1.0001 1.0001 0 0 0 32.5625 23.53125 C 32.372112 23.816832 32.121784 24.234688 31.96875 24.78125 L 31.9375 24.78125 C 31.9329 24.79504 31.9423 24.82934 31.9375 24.84375 C 31.838 25.143013 31.6875 25.553123 31.6875 26.09375 A 1.0001 1.0001 0 0 0 32.6875 27.09375 L 39.09375 27.09375 A 1.0001 1.0001 0 0 0 40.09375 26 C 39.979301 24.855506 39.641952 23.829452 38.90625 23.09375 C 38.217688 22.405188 37.2 22 36 22 z M 36 24 C 36.8 24 37.188562 24.188562 37.5 24.5 C 37.59348 24.59348 37.633518 24.924269 37.71875 25.09375 L 34 25.09375 C 34.05007 24.988354 34.09714 24.888193 34.1875 24.75 C 34.437584 24.504239 34.648009 24.28537 34.84375 24.1875 C 35.064865 24.076943 35.395238 24 36 24 z M 13.8125 25 A 1.0001 1.0001 0 0 0 13 26 L 13 32 A 1.0001 1.0001 0 0 0 14 33 L 17.40625 33 C 18.937019 33 20.136307 32.430847 20.875 31.625 C 21.613693 30.819153 21.90625 29.85 21.90625 29 C 21.90625 28.261111 21.754427 27.257853 21.0625 26.40625 C 20.370573 25.554647 19.156897 25 17.5 25 L 14 25 A 1.0001 1.0001 0 0 0 13.90625 25 A 1.0001 1.0001 0 0 0 13.8125 25 z M 15 27 L 17.5 27 C 18.743103 27 19.216927 27.339103 19.5 27.6875 C 19.783073 28.035897 19.90625 28.538889 19.90625 29 C 19.90625 29.35 19.736307 29.887097 19.375 30.28125 C 19.013693 30.675403 18.475481 31 17.40625 31 L 15 31 L 15 27 z M 34.125 30 L 38.25 30 C 38.19246 30.120657 38.21273 30.174417 38.03125 30.375 C 37.708502 30.731721 37.218269 31.09375 36.1875 31.09375 C 35.049405 31.09375 34.567721 30.732358 34.21875 30.28125 C 34.149981 30.192354 34.178961 30.098071 34.125 30 z" color="#000" overflow="visible" enable-background="accumulate" font-family="Bitstream Vera Sans"/>
</svg>