<svg xmlns="http://www.w3.org/2000/svg" width="50" height="50" viewBox="0 0 50 50" style="fill: rgb(242, 7, 50);">
    <path d="M 10 0 C 4.486 0 0 4.486 0 10 L 0 40 C 0 45.514 4.486 50 10 50 L 40 50 C 45.514 50 50 45.514 50 40 L 50 10 C 50 4.486 45.514 0 40 0 L 10 0 z M 9 15.09375 L 18.40625 15.09375 C 19.30625 15.09375 20.2 15.20625 21 15.40625 C 21.8 15.50625 22.4 15.7875 23 16.1875 C 23.6 16.5875 24.0125 17.0875 24.3125 17.6875 C 24.6125 18.2875 24.8125 19.1 24.8125 20 C 24.8125 21 24.59375 21.8 24.09375 22.5 C 23.69375 23.1 22.99375 23.69375 22.09375 24.09375 C 23.29375 24.49375 24.2125 25.1 24.8125 26 C 25.5125 26.9 25.7125 27.90625 25.8125 29.40625 C 25.8125 30.40625 25.5875 31.3 25.1875 32 C 24.7875 32.7 24.29375 33.3125 23.59375 33.8125 C 22.89375 34.2125 22.2125 34.6125 21.3125 34.8125 C 20.5125 35.0125 19.5875 35.09375 18.6875 35.09375 L 9 35.09375 L 9 15.09375 z M 32 16 L 40 16 C 40.553 16 41 16.448 41 17 C 41 17.552 40.553 18 40 18 L 32 18 C 31.447 18 31 17.552 31 17 C 31 16.448 31.447 16 32 16 z M 14 18 L 14 23 L 17.09375 23 C 19.59375 23 20 21.6 20 20.5 C 20 19.7 19.7125 18 16.8125 18 L 14 18 z M 36.09375 20 C 42.59375 20 43 25.7 43 29 L 32.6875 29 C 32.7875 29.9 33.3875 32.09375 36.1875 32.09375 C 38.7875 32.09375 39.40625 30 39.40625 30 L 42.90625 30 C 42.90625 30 41.59375 35 36.09375 35 C 33.69475 35 28.8125 33.7 28.8125 27.5 C 28.8125 20.8 34.29375 20 36.09375 20 z M 36 23 C 35.3 23 34.80625 23.1125 34.40625 23.3125 C 34.00625 23.5125 33.70625 23.79375 33.40625 24.09375 C 33.20625 24.39375 33.00625 24.69375 32.90625 25.09375 C 32.80625 25.39375 32.6875 25.69375 32.6875 26.09375 L 39.09375 26.09375 C 38.99475 25.09375 38.6875 24.3125 38.1875 23.8125 C 37.6875 23.3125 37 23 36 23 z M 14 26 L 14 32 L 17.40625 32 C 20.00625 32 20.90625 30.2 20.90625 29 C 20.90625 27.8 20.4 26 17.5 26 L 14 26 z"/>
</svg>