<svg xmlns="http://www.w3.org/2000/svg" width="50" height="50" viewBox="0 0 50 50" style="fill: rgb(242, 7, 50);">
    <path style="text-indent:0;text-align:start;line-height:normal;text-transform:none;block-progression:tb;-inkscape-font-specification:Bitstream Vera Sans" d="M 34.21875 5.46875 C 28.238431 5.46875 23.375 10.333983 23.375 16.3125 C 23.375 16.67272 23.46553 17.022615 23.5 17.375 C 16.106711 16.668911 9.567314 13.10444 5.125 7.65625 A 1.0001 1.0001 0 0 0 3.46875 7.78125 C 2.5349437 9.3867802 2 11.235888 2 13.21875 C 2 15.621739 2.8601838 17.822076 4.1875 19.625 C 3.930493 19.512355 3.6501604 19.448047 3.40625 19.3125 A 1.0001 1.0001 0 0 0 1.9375 20.1875 L 1.9375 20.3125 C 1.9375 23.995099 3.8434633 27.193529 6.65625 29.15625 C 6.625692 29.15065 6.593001 29.16215 6.5625 29.15625 A 1.0001 1.0001 0 0 0 5.4375 30.4375 C 6.5539974 33.909567 9.4044489 36.563439 12.9375 37.53125 C 10.125273 39.203308 6.8617502 40.1875 3.34375 40.1875 C 2.5835547 40.1875 1.8511022 40.15031 1.125 40.0625 A 1.0001 1.0001 0 0 0 0.46875 41.90625 C 4.9791741 44.800335 10.337342 46.5 16.09375 46.5 C 25.426908 46.5 32.744428 42.6026 37.65625 37.03125 C 42.568072 31.4599 45.125 24.227126 45.125 17.46875 C 45.125 17.181885 45.10204 16.906306 45.09375 16.625 C 46.927089 15.224434 48.561506 13.576213 49.84375 11.65625 A 1.0001 1.0001 0 0 0 48.59375 10.1875 C 48.078006 10.416201 47.475422 10.443155 46.9375 10.625 C 47.646531 9.6763993 48.255918 8.653444 48.625 7.5 A 1.0001 1.0001 0 0 0 47.15625 6.34375 C 45.449248 7.3546753 43.559514 8.0671091 41.5625 8.5 C 39.623721 6.6892033 37.073037 5.46875 34.21875 5.46875 z M 34.21875 7.46875 C 36.769677 7.46875 39.074987 8.5600388 40.6875 10.28125 A 1.0001 1.0001 0 0 0 41.625 10.5625 C 42.929618 10.305882 44.168989 9.925473 45.375 9.4375 C 44.678754 10.376638 43.819532 11.177525 42.8125 11.78125 A 1.0001 1.0001 0 0 0 43.46875 13.65625 C 44.469344 13.535316 45.360796 13.130362 46.3125 12.875 C 45.457657 13.801203 44.520485 14.637894 43.5 15.375 A 1.0001 1.0001 0 0 0 43.09375 16.25 C 43.11125 16.657348 43.125 17.056844 43.125 17.46875 C 43.125 23.719374 40.726928 30.5031 36.15625 35.6875 C 31.585572 40.8719 24.874592 44.5 16.09375 44.5 C 12.10461 44.5 8.3411522 43.615825 4.9375 42.0625 C 9.1579639 41.740175 13.04561 40.244947 16.1875 37.78125 A 1.0001 1.0001 0 0 0 15.59375 36 C 12.297211 35.93956 9.5363984 34.025078 8.0625 31.3125 C 8.115741 31.313294 8.1652833 31.3125 8.21875 31.3125 C 9.2050945 31.3125 10.182265 31.188601 11.09375 30.9375 A 1.0001 1.0001 0 0 0 11.03125 29 C 7.4725626 28.281464 4.8050204 25.384102 4.1875 21.78125 C 5.1937668 22.13008 6.2281788 22.402293 7.34375 22.4375 A 1.0001 1.0001 0 0 0 7.9375 20.59375 C 5.5609167 19.005168 4 16.296147 4 13.21875 C 4 12.077342 4.2959154 11.031186 4.6875 10.03125 C 9.6861313 15.520719 16.686116 19.164413 24.59375 19.5625 A 1.0001 1.0001 0 0 0 25.625 18.34375 C 25.473515 17.696577 25.375 17.007408 25.375 16.3125 C 25.375 11.415017 29.319069 7.46875 34.21875 7.46875 z" color="#000" overflow="visible" enable-background="accumulate" font-family="Bitstream Vera Sans"/>
</svg>