<svg xmlns="http://www.w3.org/2000/svg" width="50" height="50" viewBox="0 0 50 50" style="fill: rgb(242, 7, 50);">
    <path d="M 25 1 C 11.767 1 1 11.767 1 25 C 1 38.233 11.767 49 25 49 C 38.233 49 49 38.233 49 25 C 49 11.767 38.233 1 25 1 z M 25 6 C 29.673591 6 33.942068 7.7051919 37.25 10.5 C 35.711885 10.887213 34.6875 12.321209 34.6875 13.90625 C 34.6875 15.50625 35.59375 16.9 36.59375 18.5 C 37.39475 19.8 38.1875 21.50625 38.1875 23.90625 C 38.1875 25.60625 37.6875 27.7125 36.6875 30.3125 L 34.6875 36.90625 L 27.59375 15.6875 C 28.79375 15.5875 29.90625 15.5 29.90625 15.5 C 30.90625 15.4 30.8125 13.90625 29.8125 13.90625 L 29.6875 13.90625 C 29.6875 13.90625 26.50625 14.1875 24.40625 14.1875 C 22.50625 14.1875 19.1875 13.90625 19.1875 13.90625 L 19.09375 13.90625 C 18.09375 13.90625 18 15.5 19 15.5 C 19 15.5 19.99375 15.5875 21.09375 15.6875 L 24.1875 24.09375 L 19.90625 37 L 12.6875 15.59375 C 13.8875 15.49375 15 15.40625 15 15.40625 C 16 15.30625 15.90625 13.8125 14.90625 13.8125 L 14.8125 13.8125 C 14.8125 13.8125 11.6 14.09375 9.5 14.09375 L 9.46875 14.09375 C 12.905195 9.2050615 18.565157 6 25 6 z M 42.09375 16.71875 C 43.30733 19.222066 44 22.029293 44 25 C 44 31.927884 40.283666 37.961715 34.75 41.28125 L 40.59375 24.40625 C 41.69475 21.60625 42.09375 19.3125 42.09375 17.3125 C 42.09375 17.105978 42.100797 16.905244 42.09375 16.71875 z M 7.21875 18.3125 L 15.75 41.59375 C 9.9352185 38.346538 6 32.138354 6 25 C 6 22.645976 6.4375343 20.392229 7.21875 18.3125 z M 25 26.59375 L 31.03125 43.03125 C 29.137494 43.663527 27.107449 44 25 44 C 23.03125 44 21.129028 43.71106 19.34375 43.15625 L 25 26.59375 z"/>
</svg>