<svg xmlns="http://www.w3.org/2000/svg" viewBox="0 0 24 24" width="48" height="48" style="fill: rgb(242, 7, 50);">
    <path d="M 12 2 C 6.486 2 2 6.485 2 12 C 2 17.514 6.486 22 12 22 C 17.515 22 22 17.513 22 12 C 22 6.486 17.515 2 12 2 z M 12 3 C 16.962 3 21 7.037 21 12 C 21 16.963 16.962 21 12 21 C 7.038 21 3 16.962 3 12 C 3 7.037 7.038 3 12 3 z M 12 4 C 9.205 4 6.7425 5.42075 5.3125 7.59375 C 5.5005 7.59975 5.69375 7.625 5.84375 7.625 C 6.68075 7.625 7.96875 7.5 7.96875 7.5 C 8.39975 7.475 8.431 8.1365 8 8.1875 C 8 8.1875 7.57475 8.224 7.09375 8.25 L 9.75 16.1875 L 11.5 10.9375 L 10.53125 8.25 C 10.10025 8.225 9.6875 8.1875 9.6875 8.1875 C 9.2555 8.1615 9.28775 7.474 9.71875 7.5 C 9.71875 7.5 11.05775 7.625 11.84375 7.625 C 12.68075 7.625 13.96875 7.5 13.96875 7.5 C 14.40075 7.475 14.46225 8.1365 14.03125 8.1875 C 14.03125 8.1875 13.57375 8.224 13.09375 8.25 L 16 16.25 L 16.8125 13.59375 C 17.0755 12.52775 17.40625 11.686 17.40625 11 C 17.40625 10.25 17.063 9.903 16.75 9.375 C 16.355 8.709 15.96875 8.159 15.96875 7.5 C 15.96875 6.765 16.5275 6.09375 17.3125 6.09375 C 17.3475 6.09375 17.37125 6.09175 17.40625 6.09375 C 15.98225 4.78975 14.082 4 12 4 z M 19.03125 8.15625 C 19.06625 8.41125 19.0485 8.67375 19.0625 8.96875 C 19.1025 9.78275 18.941 11.033 18.75 11.625 C 18.14 13.512 16.34375 18.6875 16.34375 18.6875 C 16.37375 18.6765 16.4325 18.6515 16.5625 18.5625 C 18.6525 17.1315 20 14.724 20 12 C 20 10.608 19.65625 9.29525 19.03125 8.15625 z M 4.6875 8.75 C 4.2445 9.744 4 10.84 4 12 C 4 15.166 5.831 17.8905 8.5 19.1875 L 4.6875 8.75 z M 12.15625 12.6875 L 9.75 19.6875 C 10.467 19.8985 11.215 20 12 20 C 12.931 20 13.82425 19.8545 14.65625 19.5625 C 14.63525 19.5275 14.61075 19.4765 14.59375 19.4375 L 12.15625 12.6875 z"/>
</svg>